<svg width="60" height="60" viewBox="0 0 60 60" fill="none" xmlns="http://www.w3.org/2000/svg">
<g clip-path="url(#clip0_151_2)">
<path d="M30 13.125C30 18.3027 25.8027 22.5 20.625 22.5C15.4473 22.5 11.25 18.3027 11.25 13.125C11.25 7.94734 15.4473 3.75 20.625 3.75C25.8027 3.75 30 7.94734 30 13.125Z" fill="#642AB5"/>
<path d="M11.25 30C5.03681 30 0 35.0368 0 41.25V56.25H30V30H11.25Z" fill="#642AB5"/>
<path d="M48.75 30H37.5V56.25H60V41.25C60 35.0368 54.9634 30 48.75 30Z" fill="#642AB5"/>
<path d="M45 22.5C49.1422 22.5 52.5 19.1421 52.5 15C52.5 10.8579 49.1422 7.5 45 7.5C40.8578 7.5 37.5 10.8579 37.5 15C37.5 19.1421 40.8578 22.5 45 22.5Z" fill="#642AB5"/>
</g>
<defs>
<clipPath id="clip0_151_2">
<rect width="60" height="60" fill="white"/>
</clipPath>
</defs>
</svg>
